<?xml version="1.0" encoding="UTF-8" ?>
<!DOCTYPE svg PUBLIC "-//W3C//DTD SVG 1.1//EN" "http://www.w3.org/Graphics/SVG/1.1/DTD/svg11.dtd">
<svg width="849pt" height="132pt" viewBox="0 0 849 132" version="1.1" xmlns="http://www.w3.org/2000/svg">
<path fill="#ffffff" d=" M 0.00 0.00 L 849.00 0.00 L 849.00 132.00 L 0.00 132.00 L 0.00 0.00 Z" />
<path fill="#63973e" d=" M 183.71 13.18 C 189.23 13.02 194.76 13.02 200.28 13.18 C 200.37 16.09 197.66 17.44 196.73 19.87 C 198.55 20.98 200.73 20.97 202.76 21.36 C 207.89 22.32 212.50 24.88 217.40 26.58 C 219.54 27.33 222.30 25.05 223.95 27.23 C 223.53 29.49 222.21 31.45 221.24 33.50 C 214.10 35.45 207.05 32.44 199.93 32.10 C 194.95 31.78 189.95 31.75 184.96 31.93 C 177.95 32.13 171.16 34.15 164.18 34.61 C 164.29 33.00 164.41 31.38 164.52 29.76 C 168.26 26.23 172.58 23.22 177.44 21.48 C 180.74 20.63 184.13 20.17 187.49 19.64 C 185.82 17.72 183.87 15.90 183.71 13.18 Z" />
<path fill="#598938" d=" M 300.18 17.90 C 302.82 17.82 305.28 18.39 306.41 21.05 C 325.52 21.23 344.65 21.13 363.77 21.10 C 363.92 20.34 364.22 18.83 364.37 18.07 C 365.86 18.09 367.36 18.09 368.86 18.08 C 368.86 24.75 368.90 31.43 368.83 38.10 C 366.18 38.18 363.72 37.61 362.59 34.96 C 356.03 34.77 349.46 34.87 342.89 34.89 C 342.93 50.86 342.69 66.85 342.99 82.81 C 344.36 85.02 346.15 87.04 346.23 89.80 C 338.49 89.93 330.74 89.86 323.00 89.84 C 323.06 88.71 323.13 87.58 323.19 86.46 C 324.23 85.39 326.27 84.75 326.11 82.94 C 326.17 66.92 326.14 50.90 326.11 34.88 C 319.54 34.88 312.97 34.77 306.40 34.95 C 305.28 37.61 302.82 38.18 300.18 38.10 C 300.11 31.37 300.11 24.63 300.18 17.90 Z" />
<path fill="#43672a" d=" M 780.16 18.14 C 784.60 19.74 789.37 19.17 794.00 19.25 C 798.62 19.17 803.39 19.74 807.84 18.14 C 807.76 20.71 807.76 23.29 807.84 25.87 C 804.60 24.68 801.15 24.66 797.76 24.71 C 798.12 31.41 796.79 38.34 798.86 44.85 C 795.62 44.74 792.37 44.74 789.14 44.85 C 791.20 38.34 789.88 31.41 790.24 24.71 C 786.84 24.66 783.39 24.68 780.16 25.87 C 780.23 23.29 780.23 20.72 780.16 18.14 Z" />
<path fill="#4e7831" d=" M 301.23 18.84 C 303.92 20.40 306.66 22.38 309.94 22.18 C 319.51 22.07 329.09 22.62 338.65 22.03 C 333.81 24.75 334.93 31.62 330.30 34.41 C 328.40 36.09 326.04 34.17 323.94 33.99 C 319.32 33.29 314.60 33.84 309.95 33.80 C 306.68 33.59 303.94 35.50 301.29 37.09 C 300.93 31.01 300.89 24.92 301.23 18.84 Z" />
<path fill="#43672a" d=" M 809.99 19.22 C 813.91 19.25 817.83 19.28 821.75 19.15 C 821.59 20.33 821.09 21.51 821.30 22.72 C 822.84 26.86 825.54 30.41 827.62 34.28 C 829.34 30.05 832.05 26.35 834.16 22.32 C 834.69 21.36 834.32 20.20 834.44 19.16 C 838.35 19.29 842.26 19.23 846.17 19.24 C 842.51 23.36 844.02 29.00 843.74 33.99 C 843.86 37.75 842.78 42.13 846.16 44.80 C 842.81 44.75 839.47 44.73 836.14 44.85 C 837.77 40.15 837.29 35.10 837.05 30.22 C 833.44 34.88 830.52 40.05 827.60 45.15 C 824.20 40.33 821.57 35.01 817.92 30.36 C 817.72 35.19 817.22 40.19 818.86 44.84 C 815.95 44.75 813.04 44.75 810.14 44.84 C 810.94 42.32 811.38 39.69 811.27 37.03 C 811.11 31.08 811.88 24.98 809.99 19.22 Z" />
<path fill="#6aa343" d=" M 22.97 24.02 C 29.66 21.45 36.83 20.30 43.97 19.97 C 54.16 19.44 64.28 22.73 72.79 28.24 C 75.51 30.43 79.22 29.25 82.17 30.94 C 78.89 36.47 75.05 41.64 71.68 47.11 C 69.16 46.14 68.39 43.76 67.56 41.44 C 59.77 35.25 49.36 32.50 39.55 34.49 C 34.36 35.32 29.08 37.56 25.75 41.77 C 21.54 48.71 20.55 57.64 23.79 65.18 C 25.19 70.33 29.91 73.74 34.84 75.17 C 41.76 77.21 49.45 78.19 56.28 75.28 C 59.31 73.88 62.47 72.78 65.59 71.59 C 68.04 70.71 67.95 67.71 68.68 65.64 C 69.72 65.11 70.76 64.58 71.79 64.04 C 75.11 69.46 78.92 74.56 82.16 80.03 C 78.81 82.31 74.61 80.02 71.27 82.25 C 67.25 83.69 64.78 87.78 60.44 88.46 C 57.00 89.37 53.68 91.04 50.04 90.97 C 42.55 91.06 34.72 91.41 27.73 88.25 C 23.07 85.75 17.76 83.93 14.32 79.69 C 12.69 77.65 11.03 75.63 9.45 73.55 C 6.01 68.66 5.10 62.61 4.12 56.85 C 3.93 43.62 11.12 30.22 22.97 24.02 Z" />
<path fill="#000000" d=" M 23.77 24.74 C 35.49 20.79 48.64 19.27 60.55 23.36 C 65.28 24.87 69.69 27.24 73.76 30.06 C 75.80 31.52 78.50 30.87 80.84 31.24 C 77.92 36.28 74.66 41.13 71.14 45.78 C 69.88 43.77 69.05 41.40 67.25 39.79 C 60.93 35.71 53.67 32.61 46.00 32.92 C 38.83 32.86 31.23 34.85 25.99 39.98 C 20.21 47.49 19.35 58.23 23.37 66.76 C 25.18 71.68 29.93 74.64 34.71 76.15 C 41.94 78.33 50.05 79.19 57.12 75.97 C 60.89 74.12 65.22 73.34 68.56 70.68 C 69.86 69.37 69.32 65.53 71.72 66.17 C 75.25 70.37 78.04 75.15 80.87 79.84 C 77.61 80.04 74.11 79.59 71.14 81.27 C 68.26 82.48 66.01 84.69 63.43 86.37 C 59.65 87.69 55.85 89.10 51.91 89.84 C 42.68 90.35 32.78 90.51 24.57 85.61 C 16.71 82.62 11.03 75.73 7.73 68.21 C 6.10 62.61 4.18 56.65 5.65 50.80 C 7.01 39.89 13.87 29.63 23.77 24.74 Z" />
<path fill="#6da845" d=" M 160.85 46.24 C 160.90 40.58 160.56 34.35 164.52 29.76 C 164.41 31.38 164.29 33.00 164.18 34.61 C 171.16 34.15 177.95 32.13 184.96 31.93 C 189.95 31.75 194.95 31.78 199.93 32.10 C 207.05 32.44 214.10 35.45 221.24 33.50 C 219.20 37.54 217.33 41.67 215.03 45.57 C 213.26 44.09 212.00 42.16 210.55 40.41 C 206.72 37.31 201.90 35.60 197.11 34.71 C 197.02 37.02 196.97 39.33 196.94 41.65 C 193.64 41.30 190.34 41.04 187.03 40.85 C 187.04 38.52 187.01 36.19 186.98 33.87 C 184.22 34.73 181.16 35.03 178.76 36.75 C 177.37 38.48 177.12 40.82 176.51 42.89 C 171.05 41.76 165.68 43.90 160.85 46.24 Z" />
<path fill="#679e41" d=" M 700.81 33.90 C 702.98 33.16 704.75 31.60 706.79 30.56 C 707.05 36.51 707.03 42.46 706.83 48.41 C 704.92 47.97 703.66 46.56 702.54 45.06 C 698.47 44.91 694.38 45.11 690.33 44.79 C 685.27 44.12 680.16 44.19 675.10 43.72 C 670.67 43.36 666.93 40.17 665.42 36.08 C 670.73 35.55 676.02 34.90 681.31 34.19 C 687.80 33.66 694.32 34.41 700.81 33.90 Z" />
<path fill="#88c361" d=" M 518.66 41.66 C 522.50 36.84 528.46 34.73 534.19 33.12 C 544.57 32.52 555.72 32.34 564.84 38.14 C 567.91 40.34 571.53 41.38 575.22 41.94 C 572.03 46.53 568.65 50.98 565.22 55.39 C 564.57 53.81 564.05 52.18 563.34 50.62 C 558.61 45.71 551.55 44.26 545.00 43.99 C 536.54 43.65 527.81 49.00 525.24 57.21 L 524.89 56.32 C 524.66 55.70 524.20 54.48 523.97 53.87 C 518.55 57.06 514.30 61.74 510.90 66.97 L 510.35 67.70 C 508.91 58.39 511.42 48.06 518.66 41.66 Z" />
<path fill="#6aa343" d=" M 107.67 34.09 C 115.58 34.03 123.51 33.93 131.42 34.17 C 130.24 36.52 126.84 38.60 128.31 41.55 C 132.36 50.63 137.64 59.06 142.06 67.95 C 145.17 72.68 147.16 78.04 150.14 82.85 C 151.68 85.68 154.70 87.17 156.55 89.75 C 148.21 90.12 139.84 90.05 131.50 89.78 C 132.84 87.70 135.97 86.15 134.97 83.26 C 133.78 80.74 132.18 78.43 130.83 76.00 C 122.66 75.94 114.50 75.91 106.33 76.02 C 105.22 78.70 103.46 81.17 102.93 84.06 C 102.50 86.60 105.38 87.84 106.50 89.78 C 99.16 90.06 91.79 90.11 84.45 89.75 C 86.03 87.57 88.56 86.21 89.69 83.70 C 95.79 71.47 101.88 59.23 108.04 47.02 C 109.36 44.46 110.33 41.73 111.31 39.02 C 110.12 37.36 108.87 35.74 107.67 34.09 Z" />
<path fill="#ffffff" d=" M 178.76 36.75 C 181.16 35.03 184.22 34.73 186.98 33.87 C 187.01 36.19 187.04 38.52 187.03 40.85 C 187.01 42.60 186.99 44.34 186.97 46.09 C 183.41 45.28 179.88 44.32 176.51 42.89 C 177.12 40.82 177.37 38.48 178.76 36.75 Z" />
<path fill="#000000" d=" M 230.76 34.47 C 237.96 34.51 245.16 34.36 252.37 34.55 C 251.11 35.38 249.82 36.15 248.53 36.90 C 248.51 43.12 248.61 49.33 248.46 55.54 C 258.82 55.42 269.18 55.42 279.54 55.54 C 279.37 49.75 279.53 43.96 279.43 38.17 C 277.90 36.90 276.34 35.67 274.76 34.46 C 281.96 34.51 289.17 34.36 296.37 34.55 C 295.11 35.38 293.82 36.15 292.53 36.90 C 292.54 53.31 292.55 69.72 292.51 86.12 C 293.65 87.39 295.16 88.26 296.42 89.41 C 289.15 89.62 281.87 89.61 274.60 89.42 C 276.34 87.75 278.78 86.55 279.43 84.02 C 279.58 77.83 279.33 71.64 279.54 65.46 C 269.18 65.58 258.82 65.58 248.46 65.46 C 248.64 72.33 248.47 79.21 248.52 86.08 C 249.55 87.47 251.19 88.23 252.43 89.40 C 245.16 89.63 237.87 89.60 230.60 89.42 C 232.51 87.59 235.55 86.12 235.48 83.07 C 235.44 68.10 235.51 53.14 235.44 38.17 C 233.90 36.91 232.34 35.67 230.76 34.47 Z" />
<path fill="#6aa343" d=" M 372.60 34.16 C 386.07 33.83 399.55 34.14 413.03 33.97 C 416.63 33.80 420.12 34.72 423.60 35.52 C 424.03 36.74 424.48 37.95 424.93 39.16 C 422.79 42.06 420.24 45.19 416.39 45.54 C 407.63 44.52 398.79 45.10 390.00 45.02 C 389.97 48.68 389.97 52.33 390.00 55.98 C 396.46 56.06 402.93 56.02 409.40 56.08 C 408.72 60.41 407.88 65.28 403.88 67.85 C 399.40 66.38 394.63 67.08 390.01 67.01 C 389.99 72.35 389.88 77.69 389.97 83.03 C 389.72 85.81 392.17 87.63 393.41 89.85 C 386.47 90.04 379.52 90.07 372.59 89.84 C 373.02 87.94 374.42 86.66 375.92 85.54 C 376.14 70.68 375.95 55.82 376.03 40.97 C 376.27 38.19 373.82 36.37 372.60 34.16 Z" />
<path fill="#81be56" d=" M 460.61 34.06 C 468.21 33.95 475.83 33.93 483.44 34.07 C 482.42 35.74 481.16 37.27 480.27 39.02 C 481.05 44.33 484.13 48.84 486.32 53.63 L 485.71 54.13 C 482.87 56.41 480.09 58.77 477.35 61.17 C 478.20 63.81 479.06 66.46 479.93 69.10 C 476.47 69.22 472.94 69.03 469.54 69.83 C 467.14 70.68 465.63 72.91 463.90 74.65 C 470.41 74.87 476.97 74.16 483.45 75.13 C 483.58 75.54 483.84 76.36 483.96 76.77 C 475.52 75.20 466.82 76.32 458.27 76.05 C 456.88 79.08 455.87 82.26 455.07 85.50 C 456.65 86.61 458.09 87.92 458.42 89.94 C 451.14 89.99 443.85 90.20 436.59 89.82 C 437.88 87.47 440.53 86.18 441.64 83.68 C 448.50 69.87 455.46 56.10 462.31 42.29 C 464.17 39.43 461.67 36.64 460.61 34.06 Z" />
<path fill="#77b54c" d=" M 581.57 34.10 C 588.52 33.92 595.48 33.92 602.43 34.10 C 601.22 36.34 598.78 38.20 599.01 40.97 C 599.03 46.09 598.69 51.26 599.53 56.33 C 598.99 56.86 598.45 57.38 597.94 57.91 C 597.83 50.69 597.94 43.42 596.72 36.27 C 593.26 36.12 589.80 36.06 586.34 36.10 C 586.10 42.02 586.10 47.94 586.24 53.85 C 586.43 61.57 586.15 69.28 586.19 76.99 C 586.22 81.10 585.63 85.19 584.57 89.15 C 589.50 89.07 594.45 89.05 599.39 89.10 C 597.89 83.02 596.18 76.16 599.00 70.23 C 599.10 75.07 598.79 79.93 599.15 84.77 C 599.97 86.63 601.38 88.16 602.43 89.90 C 595.48 90.08 588.52 90.08 581.57 89.90 C 582.77 87.66 585.21 85.81 584.98 83.03 C 585.01 69.01 585.01 54.99 584.99 40.97 C 585.21 38.20 582.77 36.34 581.57 34.10 Z" />
<path fill="#76b64b" d=" M 617.46 34.16 C 626.50 33.91 635.56 33.83 644.60 34.21 C 641.87 37.35 637.85 38.97 635.12 42.12 C 629.87 46.82 623.86 50.55 618.42 55.02 C 618.25 53.11 618.94 50.86 617.86 49.19 C 615.69 48.16 613.23 48.00 610.91 47.56 C 614.68 44.81 618.70 42.21 621.17 38.12 C 619.77 36.96 618.46 35.68 617.46 34.16 Z" />
<path fill="#71ad48" d=" M 650.58 34.12 C 660.82 33.95 671.07 33.85 681.31 34.19 C 676.02 34.90 670.73 35.55 665.42 36.08 C 666.93 40.17 670.67 43.36 675.10 43.72 C 680.16 44.19 685.27 44.12 690.33 44.79 C 682.89 45.23 675.45 44.90 668.02 45.02 C 667.99 48.67 667.98 52.33 668.01 55.99 C 674.93 55.90 681.86 56.22 688.77 55.86 C 690.63 55.05 692.14 53.62 693.88 52.57 C 694.07 58.55 694.12 64.53 693.84 70.50 C 692.39 69.44 691.13 68.17 689.66 67.15 C 682.46 66.76 675.23 67.11 668.02 67.01 C 667.97 71.00 667.97 74.99 668.02 78.99 C 679.02 79.01 690.03 79.00 701.03 79.00 C 703.80 79.24 705.64 76.78 707.88 75.58 C 708.08 81.52 708.08 87.48 707.88 93.43 C 705.64 92.21 703.80 89.76 701.03 90.00 C 684.22 89.92 667.40 90.15 650.59 89.87 C 651.81 87.64 654.24 85.80 654.02 83.03 C 654.03 69.01 653.99 54.99 654.00 40.97 C 654.23 38.19 651.79 36.35 650.58 34.12 Z" />
<path fill="#60933c" d=" M 714.50 34.27 C 727.66 33.86 740.83 34.24 754.00 34.08 C 756.77 34.12 759.68 33.73 762.32 34.84 C 749.44 35.41 736.53 34.64 723.68 35.72 C 726.73 38.33 729.72 41.24 730.96 45.17 C 737.13 43.17 743.66 43.66 750.04 43.78 C 752.67 43.85 755.34 44.16 757.86 45.00 C 749.55 44.73 741.24 44.95 732.93 44.93 C 732.89 48.64 732.89 52.35 732.93 56.06 C 739.97 56.08 747.01 56.20 754.05 56.09 C 756.62 56.12 759.00 55.08 761.35 54.16 C 760.29 55.67 758.88 57.02 756.91 57.00 C 749.96 57.65 742.95 56.84 736.00 57.58 C 736.63 59.67 736.87 62.03 738.28 63.79 C 740.39 65.51 743.20 66.01 745.70 66.95 C 741.44 66.83 737.19 66.91 732.93 66.93 C 733.00 72.89 732.63 78.86 733.06 84.80 C 733.85 86.64 735.32 88.10 736.39 89.79 C 729.09 89.94 721.79 90.08 714.51 89.74 C 716.24 87.31 719.56 85.46 719.09 82.03 C 719.03 67.47 719.23 52.90 719.00 38.33 C 717.47 37.00 715.93 35.69 714.50 34.27 Z" />
<path fill="#000000" d=" M 110.61 35.00 C 116.69 34.99 122.77 35.03 128.85 34.97 C 127.32 37.13 126.11 39.94 127.68 42.45 C 133.39 54.49 140.29 65.91 146.32 77.79 C 148.60 81.78 150.28 86.57 154.45 89.00 C 147.47 89.02 140.48 88.95 133.50 89.05 C 134.94 88.10 136.61 86.89 136.09 84.90 C 135.77 81.23 132.94 78.41 131.65 75.05 C 123.18 75.05 114.69 74.75 106.24 75.16 C 103.42 78.98 99.62 85.02 104.16 89.04 C 98.35 88.97 92.55 88.98 86.75 89.04 C 88.39 87.57 89.99 85.96 90.86 83.90 C 97.12 70.07 104.53 56.79 110.91 43.03 C 112.35 40.43 111.98 37.53 110.61 35.00 Z" />
<path fill="#558335" d=" M 723.68 35.72 C 736.53 34.64 749.44 35.41 762.32 34.84 C 774.38 34.99 780.30 51.82 772.23 60.23 C 769.30 64.13 764.53 65.67 759.87 66.19 C 763.48 71.51 767.85 76.26 771.35 81.64 C 773.47 84.91 777.10 86.67 779.53 89.64 C 771.29 90.07 763.03 89.75 754.79 89.83 C 755.51 88.25 756.93 86.88 757.09 85.10 C 754.45 78.36 748.83 73.42 745.70 66.95 C 743.20 66.01 740.39 65.51 738.28 63.79 C 736.87 62.03 736.63 59.67 736.00 57.58 C 742.95 56.84 749.96 57.65 756.91 57.00 C 758.88 57.02 760.29 55.67 761.35 54.16 C 761.23 50.79 761.93 46.28 757.86 45.00 C 755.34 44.16 752.67 43.85 750.04 43.78 C 743.66 43.66 737.13 43.17 730.96 45.17 C 729.72 41.24 726.73 38.33 723.68 35.72 Z" />
<path fill="#73b149" d=" M 423.60 35.52 C 427.77 37.37 431.74 40.68 432.67 45.36 C 433.26 48.66 433.35 52.19 432.44 55.45 C 431.70 58.60 428.91 60.57 426.79 62.79 C 424.57 65.40 420.93 65.39 417.88 66.28 C 421.67 71.75 425.66 77.10 429.41 82.61 C 431.23 85.48 434.73 86.80 436.39 89.78 C 428.11 90.18 419.80 90.06 411.51 89.85 C 412.53 88.33 413.66 86.88 414.83 85.47 C 411.41 79.47 406.91 74.22 403.23 68.40 L 403.88 67.85 C 407.88 65.28 408.72 60.41 409.40 56.08 C 412.01 55.77 415.57 56.90 417.17 54.15 C 417.91 53.19 418.56 52.16 419.24 51.15 C 418.29 49.28 417.38 47.39 416.39 45.54 C 420.24 45.19 422.79 42.06 424.93 39.16 C 424.48 37.95 424.03 36.74 423.60 35.52 Z" />
<path fill="#85c15c" d=" M 586.34 36.10 C 589.80 36.06 593.26 36.12 596.72 36.27 C 597.94 43.42 597.83 50.69 597.94 57.91 C 598.45 57.38 598.99 56.86 599.53 56.33 C 603.05 53.07 607.08 50.44 610.91 47.56 C 613.23 48.00 615.69 48.16 617.86 49.19 C 618.94 50.86 618.25 53.11 618.42 55.02 C 617.88 55.39 616.81 56.15 616.27 56.53 C 623.61 65.82 632.14 74.12 639.14 83.70 C 640.58 85.51 642.08 87.28 643.62 89.02 C 637.08 88.94 630.56 89.19 624.03 89.00 C 623.87 88.41 623.55 87.23 623.39 86.64 C 622.84 83.92 620.49 82.20 618.87 80.12 C 614.85 75.12 610.46 70.42 606.72 65.21 C 605.65 65.77 604.60 66.33 603.56 66.92 C 598.48 61.54 590.38 60.26 586.24 53.85 C 586.10 47.94 586.10 42.02 586.34 36.10 Z" />
<path fill="#76b54b" d=" M 187.03 40.85 C 190.34 41.04 193.64 41.30 196.94 41.65 C 196.99 43.38 197.02 45.11 197.07 46.84 C 204.88 47.37 213.54 49.06 219.24 54.84 C 211.81 52.17 204.10 49.97 196.15 49.78 C 186.66 49.50 176.96 49.66 167.84 52.58 C 167.35 53.67 166.84 54.76 166.33 55.83 C 166.04 55.85 165.45 55.90 165.16 55.92 C 163.21 52.96 161.54 49.74 160.85 46.24 C 165.68 43.90 171.05 41.76 176.51 42.89 C 179.88 44.32 183.41 45.28 186.97 46.09 C 186.99 44.34 187.01 42.60 187.03 40.85 Z" />
<path fill="#ffffff" d=" M 390.00 45.02 C 398.79 45.10 407.63 44.52 416.39 45.54 C 417.38 47.39 418.29 49.28 419.24 51.15 C 418.56 52.16 417.91 53.19 417.17 54.15 C 415.57 56.90 412.01 55.77 409.40 56.08 C 402.93 56.02 396.46 56.06 390.00 55.98 C 389.97 52.33 389.97 48.68 390.00 45.02 Z" />
<path fill="#ffffff" d=" M 732.93 44.93 C 741.24 44.95 749.55 44.73 757.86 45.00 C 761.93 46.28 761.23 50.79 761.35 54.16 C 759.00 55.08 756.62 56.12 754.05 56.09 C 747.01 56.20 739.97 56.08 732.93 56.06 C 732.89 52.35 732.89 48.64 732.93 44.93 Z" />
<path fill="#80be57" d=" M 167.84 52.58 C 176.96 49.66 186.66 49.50 196.15 49.78 C 204.10 49.97 211.81 52.17 219.24 54.84 C 221.06 55.90 221.46 58.17 222.24 59.96 C 208.56 55.92 194.16 54.66 179.98 56.20 C 177.34 56.42 175.40 58.38 173.33 59.80 C 170.46 59.88 168.11 57.90 166.33 55.83 C 166.84 54.76 167.35 53.67 167.84 52.58 Z" />
<path fill="#ffffff" d=" M 110.14 68.49 C 113.65 63.03 115.19 56.62 118.63 51.12 C 121.25 56.98 124.48 62.54 126.98 68.46 C 121.36 68.48 115.75 68.44 110.14 68.49 Z" />
<path fill="#ffffff" d=" M 470.41 51.90 C 473.06 57.22 475.83 62.48 478.26 67.91 C 473.17 68.05 468.09 67.99 463.00 68.00 C 465.89 62.83 467.85 57.23 470.41 51.90 Z" />
<path fill="#92c86d" d=" M 477.35 61.17 C 480.09 58.77 482.87 56.41 485.71 54.13 C 485.45 55.46 486.55 56.43 487.61 56.99 C 490.99 59.68 491.78 64.39 494.15 67.89 C 498.74 74.68 500.62 83.49 507.61 88.45 C 500.31 89.50 492.86 89.72 485.60 88.34 C 486.39 87.20 487.21 86.07 488.03 84.94 C 486.36 82.38 484.63 79.80 483.96 76.77 C 483.84 76.36 483.58 75.54 483.45 75.13 C 476.97 74.16 470.41 74.87 463.90 74.65 C 465.63 72.91 467.14 70.68 469.54 69.83 C 472.94 69.03 476.47 69.22 479.93 69.10 C 479.06 66.46 478.20 63.81 477.35 61.17 Z" />
<path fill="#76b34e" d=" M 485.71 54.13 C 487.11 53.51 488.54 55.93 487.61 56.99 C 486.55 56.43 485.45 55.46 485.71 54.13 Z" />
<path fill="#a0cf80" d=" M 510.90 66.97 C 514.30 61.74 518.55 57.06 523.97 53.87 C 524.20 54.48 524.66 55.70 524.89 56.32 C 523.83 59.79 522.88 63.71 525.03 66.99 C 527.91 73.25 533.88 78.35 540.85 79.12 C 547.68 80.84 554.46 77.90 560.88 75.83 C 563.26 74.80 565.36 73.24 567.43 71.69 C 569.65 74.13 571.63 76.79 573.37 79.59 C 570.90 81.04 568.45 82.51 566.22 84.30 C 562.44 87.78 557.49 89.88 552.37 90.24 C 546.45 90.00 540.54 90.00 534.63 90.24 C 527.93 89.58 521.33 86.15 517.30 80.67 C 515.04 77.69 511.78 74.79 512.05 70.70 C 512.16 69.38 512.08 67.82 510.90 66.97 Z" />
<path fill="#93c86f" d=" M 586.24 53.85 C 590.38 60.26 598.48 61.54 603.56 66.92 C 602.11 68.12 600.53 69.14 599.00 70.23 C 596.18 76.16 597.89 83.02 599.39 89.10 C 594.45 89.05 589.50 89.07 584.57 89.15 C 585.63 85.19 586.22 81.10 586.19 76.99 C 586.15 69.28 586.43 61.57 586.24 53.85 Z" />
<path fill="#8dc566" d=" M 179.98 56.20 C 194.16 54.66 208.56 55.92 222.24 59.96 C 225.08 63.50 223.78 69.06 223.96 73.44 L 223.57 72.64 C 222.57 70.42 221.30 67.99 218.68 67.45 C 213.71 66.04 208.65 63.41 203.37 64.60 C 202.15 64.39 200.96 64.10 199.77 63.81 C 198.42 63.37 196.99 63.34 195.61 63.53 C 193.24 63.81 190.84 63.84 188.48 63.54 C 183.59 61.72 178.52 60.41 173.33 59.80 C 175.40 58.38 177.34 56.42 179.98 56.20 Z" />
<path fill="#70ad47" d=" M 525.03 66.99 C 522.88 63.71 523.83 59.79 524.89 56.32 C 525.08 59.87 524.99 63.43 525.03 66.99 Z" />
<path fill="#6da845" d=" M 173.33 59.80 C 178.52 60.41 183.59 61.72 188.48 63.54 C 188.02 68.16 187.93 72.81 188.17 77.45 C 184.67 77.80 181.32 76.50 178.35 74.76 C 181.28 75.26 184.16 76.00 187.02 76.82 C 187.04 72.28 187.03 67.75 187.00 63.22 C 182.36 62.55 177.44 62.28 173.33 59.80 Z" />
<path fill="#70ad47" d=" M 195.61 63.53 C 196.99 63.34 198.42 63.37 199.77 63.81 C 199.18 63.93 197.99 64.17 197.40 64.29 C 196.35 68.08 197.25 72.14 197.04 76.04 C 198.65 76.02 200.27 76.01 201.89 75.93 C 200.17 76.59 198.42 77.19 196.63 77.63 C 196.41 77.30 195.97 76.65 195.75 76.32 C 195.82 72.06 196.00 67.79 195.61 63.53 Z" />
<path fill="#9ccd7b" d=" M 203.37 64.60 C 208.65 63.41 213.71 66.04 218.68 67.45 C 221.30 67.99 222.57 70.42 223.57 72.64 C 223.19 75.72 221.32 78.25 219.78 80.83 C 214.77 78.17 209.28 76.72 203.89 75.12 C 204.17 74.88 204.73 74.39 205.01 74.15 C 208.06 72.38 208.17 68.96 207.73 65.84 C 206.28 65.42 204.82 65.01 203.37 64.60 Z" />
<path fill="#9fcf80" d=" M 188.48 63.54 C 190.84 63.84 193.24 63.81 195.61 63.53 C 196.00 67.79 195.82 72.06 195.75 76.32 C 193.20 76.57 190.69 77.08 188.17 77.45 C 187.93 72.81 188.02 68.16 188.48 63.54 Z" />
<path fill="#ffffff" d=" M 197.40 64.29 C 197.99 64.17 199.18 63.93 199.77 63.81 C 200.96 64.10 202.15 64.39 203.37 64.60 C 204.69 65.93 207.46 66.74 207.02 69.05 C 206.88 70.91 205.84 72.53 205.01 74.15 C 204.73 74.39 204.17 74.88 203.89 75.12 C 203.39 75.32 202.39 75.73 201.89 75.93 C 200.27 76.01 198.65 76.02 197.04 76.04 C 197.25 72.14 196.35 68.08 197.40 64.29 Z" />
<path fill="#a1d083" d=" M 166.34 65.07 C 167.55 64.89 168.60 65.72 169.72 66.06 C 170.15 67.63 170.22 69.42 171.30 70.74 C 173.68 72.51 176.62 73.24 179.27 74.47 L 178.35 74.76 C 172.63 75.79 168.37 79.78 164.47 83.78 C 162.21 85.46 159.69 84.20 157.61 82.93 C 160.26 76.86 163.34 70.97 166.34 65.07 Z" />
<path fill="#6da845" d=" M 203.37 64.60 C 204.82 65.01 206.28 65.42 207.73 65.84 C 208.17 68.96 208.06 72.38 205.01 74.15 C 205.84 72.53 206.88 70.91 207.02 69.05 C 207.46 66.74 204.69 65.93 203.37 64.60 Z" />
<path fill="#70ad47" d=" M 510.90 66.97 C 512.08 67.82 512.16 69.38 512.05 70.70 C 510.43 70.74 510.14 68.03 510.90 66.97 Z" />
<path fill="#6da845" d=" M 565.42 68.69 C 566.09 69.68 566.76 70.68 567.43 71.69 C 565.36 73.24 563.26 74.80 560.88 75.83 C 562.87 73.78 564.20 71.25 565.42 68.69 Z" />
<path fill="#b4da9b" d=" M 164.47 83.78 C 168.37 79.78 172.63 75.79 178.35 74.76 C 181.32 76.50 184.67 77.80 188.17 77.45 C 190.69 77.08 193.20 76.57 195.75 76.32 C 195.97 76.65 196.41 77.30 196.63 77.63 C 198.42 77.19 200.17 76.59 201.89 75.93 C 202.39 75.73 203.39 75.32 203.89 75.12 C 209.28 76.72 214.77 78.17 219.78 80.83 C 216.87 83.99 213.22 86.44 209.24 88.03 C 204.70 88.76 200.16 89.58 195.66 90.55 C 196.48 93.17 197.68 95.65 199.05 98.04 C 194.34 98.13 189.63 98.14 184.92 98.03 C 186.14 95.59 187.31 93.13 188.32 90.59 C 180.10 89.32 172.26 86.59 164.47 83.78 Z" />
<path fill="#6da845" d=" M 573.37 79.59 C 573.97 80.40 574.58 81.21 575.19 82.02 C 572.16 82.61 569.15 83.32 566.22 84.30 C 568.45 82.51 570.90 81.04 573.37 79.59 Z" />
<path fill="#6da845" d=" M 164.47 83.78 C 172.26 86.59 180.10 89.32 188.32 90.59 C 187.31 93.13 186.14 95.59 184.92 98.03 C 189.63 98.14 194.34 98.13 199.05 98.04 C 197.68 95.65 196.48 93.17 195.66 90.55 C 200.16 89.58 204.70 88.76 209.24 88.03 C 205.52 90.22 201.08 90.36 196.96 91.26 C 196.99 91.83 197.05 92.98 197.08 93.56 C 199.18 94.67 200.27 96.52 200.26 98.90 C 194.83 99.08 189.39 99.04 183.95 98.93 C 184.00 97.78 184.05 96.62 184.10 95.47 C 185.52 94.38 186.94 93.21 187.38 91.38 C 179.53 89.76 171.15 88.49 164.47 83.78 Z" />
<path fill="#71ae48" d=" M 639.14 83.70 C 641.88 85.34 644.83 86.99 646.54 89.80 C 637.86 90.13 629.16 90.13 620.48 89.81 C 621.24 88.58 622.21 87.49 623.39 86.64 C 623.55 87.23 623.87 88.41 624.03 89.00 C 630.56 89.19 637.08 88.94 643.62 89.02 C 642.08 87.28 640.58 85.51 639.14 83.70 Z" />
<path fill="#70ad47" d=" M 483.63 88.05 C 484.12 88.12 485.11 88.27 485.60 88.34 C 492.86 89.72 500.31 89.50 507.61 88.45 L 508.66 88.34 C 507.68 90.61 504.97 89.87 503.02 90.04 C 496.78 89.84 490.52 90.31 484.30 89.81 C 484.14 89.37 483.80 88.49 483.63 88.05 Z" />
<path fill="#70ad47" d=" M 534.63 90.24 C 540.54 90.00 546.45 90.00 552.37 90.24 C 549.40 91.49 546.12 90.91 543.00 91.05 C 540.20 90.97 537.27 91.39 534.63 90.24 Z" />
</svg>
